PathFileType	4	(X/Y/Z)	AB09\squats_1.trc
DataRate	CameraRate	NumFrames	NumMarkers	Units	OrigDataRate	OrigDataStartFrame	OrigNumFrames
200.000000	200.000000	4	35	mm	200.000000	290	332
Frame#	Time	C7			LSHO			STRN			LASI			RASI			LPSI			RPSI			LGTR			RGTR			LTHC			LTHL			LTHR			LKNE			LMKNE			LSHC			LSHL			LSHR			LANK			LMANK			LMT1			LMT5			LCAL			RTHC			RTHL			RTHR			RKNE			RMKNE			RSHC			RSHL			RSHR			RANK			RMANK			RMT1			RMT5			RCAL			
		X1	Y1	Z1	X2	Y2	Z2	X3	Y3	Z3	X4	Y4	Z4	X5	Y5	Z5	X6	Y6	Z6	X7	Y7	Z7	X8	Y8	Z8	X9	Y9	Z9	X10	Y10	Z10	X11	Y11	Z11	X12	Y12	Z12	X13	Y13	Z13	X14	Y14	Z14	X15	Y15	Z15	X16	Y16	Z16	X17	Y17	Z17	X18	Y18	Z18	X19	Y19	Z19	X20	Y20	Z20	X21	Y21	Z21	X22	Y22	Z22	X23	Y23	Z23	X24	Y24	Z24	X25	Y25	Z25	X26	Y26	Z26	X27	Y27	Z27	X28	Y28	Z28	X29	Y29	Z29	X30	Y30	Z30	X31	Y31	Z31	X32	Y32	Z32	X33	Y33	Z33	X34	Y34	Z34	X35	Y35	Z35	

291	21.615	-3489.416271119554	1473.898325332722	2490.234381990833	-3565.747631644899	1434.396267666047	2657.123178090568	-3628.335988162948	1198.112052928364	2498.532832594778	-3422.323727185633	973.0937830007794	2644.544304106851	-3441.393862040344	951.8826194738228	2357.438399127394	-3244.738714123247	1008.733701058406	2554.69774592061	-3247.369483798872	1002.333725189523	2418.711565763477	-3337.102353932201	895.7066440164745	2704.629095286418	-3353.267496061402	880.2230714408494	2285.200289704226	-3481.282139205834	707.5107738870644	2734.081751067904	-3567.698997046887	683.9806416680955	2646.197617605443	-3403.475577815764	564.2927577107812	2656.953947799648	-3549.067240815054	522.4676878551438	2735.676101290061	-3560.189477833937	501.6812703612762	2606.106656722194	-3442.357884639119	428.0200722981516	2732.803107204347	-3575.661418830852	368.2626008788108	2693.129118618174	-3508.000998844085	299.685747592215	2756.510079736115	-3436.267490308073	107.5932474927434	2741.270473743145	-3477.914757989576	117.2266610191361	2646.957607553469	-3584.7238456666	78.18858308063751	2686.946373348222	-3534.572059847131	55.78623372613297	2787.526056696162	-3361.731390780983	71.18274611189982	2672.683123355495	-3397.161484356505	578.6441036366475	2329.488416610018	-3479.538980138967	676.7036712516031	2250.273968137023	-3564.585763271814	700.2685806951722	2318.172165139811	-3525.735534152788	518.686366037748	2257.171116743272	-3552.327544452449	511.7171682025994	2399.708960361676	-3484.818603454079	307.3263157673524	2240.668189056455	-3434.84909682531	409.784292640442	2275.456563893913	-3572.13968540867	364.7104502444245	2328.664216692195	-3437.145356688413	105.5248830640863	2280.152208974541	-3481.294069845825	115.9268168072883	2375.275966776919	-3601.813877575958	66.35517751312749	2319.79755493773	-3548.092995301784	63.20370618715508	2215.936698105585	-3379.234957252323	69.65087394526122	2360.744571678695	
292	21.62	-3488.398042395316	1478.807006059886	2490.070312659257	-3564.925038954349	1439.455919430819	2657.156377834028	-3629.028863518441	1203.737219113445	2498.342609298033	-3424.888994469939	976.9463045477945	2644.502127254729	-3443.879144718408	955.8488511841806	2357.287565119895	-3247.245852061741	1012.362526736227	2554.684491087417	-3249.835538766461	1005.979187854081	2418.718805025303	-3339.70259315251	899.1676428585444	2704.428535386705	-3355.580491310624	883.6024015740877	2285.365964592732	-3481.502546443535	709.1911934220079	2733.680036350551	-3567.59974838848	684.6326944010484	2645.834786583816	-3401.941538610345	566.7521574610131	2656.304610539893	-3546.953706986739	523.3281532758679	2734.968930104683	-3558.190361656618	502.4321989453671	2605.609282601067	-3440.291105131189	428.4315414793674	2732.250743046029	-3573.861436293374	369.1805794230381	2692.818609328026	-3506.590032544328	300.3475551017577	2756.325644848705	-3436.169005853169	107.6722946086109	2741.278997030951	-3477.767822460446	117.3355319541598	2646.973467650489	-3584.724486451972	78.19271114333465	2686.953091684507	-3534.592674025437	55.77937104528632	2787.525618273361	-3361.760628804877	71.24708080198364	2672.71071504361	-3395.695110975716	581.3021109388249	2330.031579350788	-3479.460641966989	678.4623800830168	2250.677025589974	-3564.714875475821	700.9651061540477	2318.669179189363	-3523.61544657438	519.7133452119695	2257.969877362556	-3550.238134229833	512.5159930688775	2400.424422417142	-3483.221535794931	307.8988191652078	2241.038097304701	-3432.709714284974	410.1662949090842	2276.114219455915	-3570.294815012187	365.5590490593844	2329.029831727607	-3437.082573366563	105.5467387574922	2280.118879507232	-3481.140800195999	116.017893601094	2375.182676488545	-3601.836997862455	66.31328072104026	2319.742365344929	-3548.133509567851	63.11727221167595	2215.86320592692	-3379.255037058314	69.70351488908621	2360.714261561301	
293	21.625	-3487.371325331558	1483.612679261097	2489.912046914308	-3564.088829406674	1444.400319527941	2657.201062466606	-3629.712144225788	1209.270578817723	2498.158383113562	-3427.469382697089	980.7259089622391	2644.455458108376	-3446.380053595045	959.7284976471459	2357.135997014135	-3249.769946993138	1015.914174173366	2554.670892321394	-3252.321809406246	1009.537755218264	2418.730186321911	-3342.309233638407	902.5685231669499	2704.226427005302	-3357.903668609511	886.9135837857867	2285.530209384058	-3481.709279103289	710.836104675329	2733.275364384422	-3567.471254640911	685.2460373657685	2645.462469246197	-3400.398988517372	569.2063706040486	2655.648929418975	-3544.806023583068	524.1812931142889	2734.256856501432	-3556.154118413153	503.1727329243458	2605.101737284773	-3438.193746167138	428.8383832592466	2731.681195182796	-3572.037472997251	370.1004040250267	2692.503870715444	-3505.157588189451	301.0129233020376	2756.133204397413	-3436.071897515773	107.7540004101259	2741.284927883941	-3477.622627147094	117.4490193994298	2646.990374673844	-3584.726920504314	78.19750950494925	2686.960304838175	-3534.612719689057	55.77265943123932	2787.522292734381	-3361.78844207324	71.31437074062372	2672.733751393452	-3394.229059862478	583.9386995850725	2330.595198353419	-3479.375811847129	680.1760291526094	2251.101041202219	-3564.823068478449	701.6205261200987	2319.193050285233	-3521.479574787314	520.7220089144075	2258.797161126507	-3548.125325487712	513.2939539869629	2401.175014642026	-3481.620399198337	308.4668057655472	2241.424128171308	-3430.558004897233	410.5400004027312	2276.790330331135	-3568.434619495357	366.4008192720605	2329.422450503235	-3437.02094183637	105.5731546192272	2280.088561918948	-3480.987985235871	116.1072015313953	2375.094137884966	-3601.860945547558	66.27220472830183	2319.69397631735	-3548.176224941421	63.0347897744418	2215.79592739681	-3379.277423701593	69.75762776419742	2360.688034876548	
294	21.63	-3486.33581595206	1488.311540222592	2489.759568599981	-3563.238562306904	1449.225884356247	2657.257077873335	-3630.385308490008	1214.709479861107	2497.980024499631	-3430.063837562383	984.4314366711855	2644.404370044785	-3448.895555275667	963.5191398166388	2356.984348769412	-3252.310432374832	1019.38688337056	2554.656754279919	-3254.82738887053	1013.006685409708	2418.745568929089	-3344.921107085298	905.9083657091688	2704.023076956336	-3360.236639323334	890.1531919282118	2285.69305858864	-3481.903152607634	712.4435337288004	2732.867765720699	-3567.313737944107	685.8192688875973	2645.079782792975	-3398.848619959135	571.6547429819688	2654.985486468257	-3542.624983318249	525.0259023046189	2733.539578857301	-3554.079366696433	503.9016939431052	2604.582608233083	-3436.066579790999	429.2398060595199	2731.094797813722	-3570.189813198154	371.0211496274387	2692.18373750431	-3503.704215375412	301.6811312222791	2755.931925141652	-3435.975701139473	107.838340690512	2741.288095767725	-3477.47931332829	117.5668741466683	2647.008223677396	-3584.730907915925	78.20305739116959	2686.967790744896	-3534.632238729853	55.76628643074318	2787.516274048665	-3361.814482869076	71.38426628954315	2672.75191438812	-3392.765342937467	586.5519642336346	2331.181061197798	-3479.284193311211	681.8418664512516	2251.54659295952	-3564.911361277735	702.2333011504479	2319.742993762511	-3519.329404832867	521.7107504684911	2259.652453139437	-3545.990732955903	514.0500702311833	2401.960743314815	-3480.017344779285	309.0296342892534	2241.82641858046	-3428.39660733059	410.9045204299841	2277.484027392269	-3566.560634502966	367.2348502449113	2329.842713511835	-3436.960314933946	105.604411677337	2280.061741453191	-3480.836345243382	116.1946473263643	2375.010794434704	-3601.885853388461	66.23216373783731	2319.652525908805	-3548.220994997258	62.95654347220134	2215.735323487982	-3379.301976010403	69.8133248014442	2360.666113491988	
